<?xml version="1.0" encoding="utf-8"?>
<!-- Generator: Adobe Illustrator 14.0.0, SVG Export Plug-In . SVG Version: 6.00 Build 43363)  -->
<!DOCTYPE svg PUBLIC "-//W3C//DTD SVG 1.1//EN" "http://www.w3.org/Graphics/SVG/1.1/DTD/svg11.dtd">
<svg version="1.1" id="Layer_1" xmlns="http://www.w3.org/2000/svg" xmlns:xlink="http://www.w3.org/1999/xlink" x="0px" y="0px"
	 width="600px" height="100px" viewBox="0 0 600 100" enable-background="new 0 0 600 100" xml:space="preserve">
<rect x="5" y="5" fill="#FFFFFF" stroke="#FF0000" stroke-width="4" width="590" height="90"/>
<g>
	<path fill="none" stroke="#0000FF" d="M34.108,43.939h-4.369v-3.072h12.433v3.072h-4.416v13.105h-3.648V43.939z"/>
	<path fill="none" stroke="#0000FF" d="M43.708,40.003h3.648v6.721h0.048c0.384-0.528,0.864-0.936,1.44-1.224
		c0.552-0.288,1.224-0.456,1.896-0.456c2.328,0,4.104,1.608,4.104,5.16v6.841h-3.648v-6.457c0-1.536-0.528-2.592-1.896-2.592
		c-0.96,0-1.56,0.624-1.824,1.296c-0.096,0.216-0.12,0.528-0.12,0.792v6.961h-3.648V40.003z"/>
	<path fill="none" stroke="#0000FF" d="M61.54,42.043c0,1.008-0.744,1.824-1.968,1.824c-1.152,0-1.896-0.816-1.896-1.824
		c0-1.032,0.768-1.824,1.944-1.824C60.795,40.219,61.516,41.011,61.54,42.043z M57.771,57.045V45.308h3.648v11.737H57.771z"/>
	<path fill="none" stroke="#0000FF" d="M64.323,53.876c0.672,0.408,2.064,0.864,3.145,0.864c1.104,0,1.56-0.359,1.56-0.96
		c0-0.624-0.36-0.912-1.704-1.368c-2.448-0.816-3.384-2.136-3.36-3.528c0-2.208,1.872-3.864,4.776-3.864
		c1.368,0,2.568,0.336,3.289,0.696l-0.625,2.521c-0.528-0.288-1.56-0.672-2.544-0.672c-0.888,0-1.392,0.36-1.392,0.936
		c0,0.576,0.456,0.864,1.896,1.368c2.232,0.768,3.145,1.92,3.168,3.625c0,2.208-1.704,3.816-5.064,3.816
		c-1.536,0-2.904-0.36-3.792-0.84L64.323,53.876z"/>
	<path fill="none" stroke="#0000FF" d="M83.379,42.043c0,1.008-0.744,1.824-1.968,1.824c-1.152,0-1.896-0.816-1.896-1.824
		c0-1.032,0.768-1.824,1.944-1.824C82.635,40.219,83.355,41.011,83.379,42.043z M79.611,57.045V45.308h3.648v11.737H79.611z"/>
	<path fill="none" stroke="#0000FF" d="M86.162,53.876c0.672,0.408,2.064,0.864,3.145,0.864c1.104,0,1.56-0.359,1.56-0.96
		c0-0.624-0.36-0.912-1.704-1.368c-2.448-0.816-3.384-2.136-3.36-3.528c0-2.208,1.872-3.864,4.776-3.864
		c1.368,0,2.568,0.336,3.289,0.696l-0.625,2.521c-0.528-0.288-1.56-0.672-2.544-0.672c-0.888,0-1.392,0.36-1.392,0.936
		c0,0.576,0.456,0.864,1.896,1.368c2.232,0.768,3.145,1.92,3.168,3.625c0,2.208-1.704,3.816-5.064,3.816
		c-1.536,0-2.904-0.36-3.792-0.84L86.162,53.876z"/>
	<path fill="none" stroke="#0000FF" d="M111.219,54.213c0,1.104,0.048,2.184,0.192,2.832h-3.288l-0.216-1.177h-0.072
		c-0.768,0.937-1.968,1.44-3.36,1.44c-2.376,0-3.792-1.729-3.792-3.601c0-3.048,2.736-4.488,6.888-4.488v-0.144
		c0-0.648-0.336-1.536-2.136-1.536c-1.2,0-2.472,0.408-3.24,0.888l-0.672-2.352c0.816-0.456,2.424-1.056,4.561-1.056
		c3.912,0,5.136,2.304,5.136,5.088V54.213z M107.69,51.5c-1.92,0-3.408,0.456-3.408,1.848c0,0.937,0.624,1.393,1.44,1.393
		c0.888,0,1.656-0.6,1.896-1.344c0.048-0.192,0.072-0.408,0.072-0.625V51.5z"/>
	<path fill="none" stroke="#0000FF" d="M114.123,49.052c0-1.464-0.048-2.688-0.096-3.744h3.168l0.168,1.632h0.072
		c0.48-0.768,1.656-1.896,3.625-1.896c2.4,0,4.2,1.608,4.2,5.064v6.937h-3.648V50.54c0-1.512-0.528-2.544-1.848-2.544
		c-1.008,0-1.608,0.696-1.872,1.368c-0.096,0.24-0.12,0.576-0.12,0.912v6.769h-3.648V49.052z"/>
	<path fill="#0000FF" stroke="#0000FF" d="M133.274,53.275c0.96,0.505,2.496,1.009,4.056,1.009c1.68,0,2.568-0.696,2.568-1.752
		c0-1.009-0.768-1.584-2.712-2.256c-2.688-0.96-4.465-2.448-4.465-4.8c0-2.76,2.329-4.849,6.121-4.849
		c1.848,0,3.168,0.36,4.128,0.816l-0.816,2.929c-0.624-0.313-1.8-0.769-3.36-0.769c-1.584,0-2.352,0.744-2.352,1.561
		c0,1.032,0.888,1.488,3,2.28c2.856,1.056,4.176,2.544,4.176,4.824c0,2.713-2.064,5.018-6.504,5.018
		c-1.848,0-3.672-0.505-4.584-1.009L133.274,53.275z"/>
	<path fill="#0000FF" stroke="#0000FF" d="M149.93,57.045l-5.185-16.178h4.008l1.968,6.84c0.552,1.944,1.056,3.769,1.44,5.785h0.072
		c0.408-1.944,0.912-3.864,1.464-5.712l2.064-6.913h3.888l-5.448,16.178H149.93z"/>
	<path fill="#0000FF" stroke="#0000FF" d="M174.699,56.301c-1.128,0.384-3.264,0.912-5.4,0.912c-2.952,0-5.088-0.744-6.577-2.16
		c-1.464-1.416-2.28-3.529-2.28-5.905c0.024-5.376,3.937-8.449,9.241-8.449c2.088,0,3.696,0.408,4.488,0.768l-0.768,2.952
		c-0.888-0.408-1.968-0.696-3.745-0.696c-3.048,0-5.376,1.704-5.376,5.232c0,3.361,2.112,5.304,5.113,5.304
		c0.816,0,1.488-0.096,1.776-0.216v-3.408h-2.496V47.78h6.024V56.301z"/>
	<path fill="none" stroke="#0000FF" d="M182.713,57.045v-9.049h-1.56v-2.688h1.56v-0.48c0-3.264,2.497-5.088,6.121-5.088
		c1.248,0,2.736,0.288,3.457,0.72l-0.696,2.76c-0.576-0.312-1.512-0.6-2.664-0.6c-1.92,0-2.592,0.984-2.592,2.28v0.408h7.128v11.737
		h-3.648v-9.049h-3.457v9.049H182.713z"/>
	<path fill="none" stroke="#0000FF" d="M196.394,40.003h3.648v17.042h-3.648V40.003z"/>
	<path fill="none" stroke="#0000FF" d="M205.801,52.34c0.096,1.512,1.608,2.232,3.312,2.232c1.248,0,2.256-0.168,3.24-0.504
		l0.48,2.473c-1.2,0.504-2.665,0.744-4.249,0.744c-3.984,0-6.265-2.305-6.265-5.977c0-2.977,1.848-6.265,5.929-6.265
		c3.792,0,5.232,2.952,5.232,5.856c0,0.624-0.072,1.176-0.12,1.44H205.801z M210.098,49.844c0-0.888-0.384-2.376-2.064-2.376
		c-1.536,0-2.16,1.416-2.256,2.376H210.098z"/>
	<path fill="none" stroke="#0000FF" d="M224.593,42.139v3.168h2.616v2.688h-2.616v4.249c0,1.416,0.36,2.064,1.44,2.064
		c0.504,0,0.744-0.024,1.08-0.096l0.024,2.76c-0.456,0.168-1.344,0.313-2.353,0.313c-1.176,0-2.16-0.408-2.76-1.009
		c-0.672-0.696-1.008-1.824-1.008-3.48v-4.8h-1.56v-2.688h1.56v-2.185L224.593,42.139z"/>
	<path fill="none" stroke="#0000FF" d="M229.32,40.003h3.648v6.721h0.048c0.385-0.528,0.864-0.936,1.44-1.224
		c0.552-0.288,1.224-0.456,1.896-0.456c2.328,0,4.104,1.608,4.104,5.16v6.841h-3.648v-6.457c0-1.536-0.528-2.592-1.896-2.592
		c-0.96,0-1.561,0.624-1.824,1.296c-0.096,0.216-0.12,0.528-0.12,0.792v6.961h-3.648V40.003z"/>
	<path fill="none" stroke="#0000FF" d="M253.154,54.213c0,1.104,0.048,2.184,0.191,2.832h-3.288l-0.216-1.177h-0.072
		c-0.768,0.937-1.968,1.44-3.36,1.44c-2.376,0-3.792-1.729-3.792-3.601c0-3.048,2.736-4.488,6.889-4.488v-0.144
		c0-0.648-0.336-1.536-2.137-1.536c-1.2,0-2.472,0.408-3.24,0.888l-0.672-2.352c0.816-0.456,2.424-1.056,4.561-1.056
		c3.912,0,5.137,2.304,5.137,5.088V54.213z M249.626,51.5c-1.921,0-3.409,0.456-3.409,1.848c0,0.937,0.625,1.393,1.44,1.393
		c0.889,0,1.656-0.6,1.896-1.344c0.048-0.192,0.072-0.408,0.072-0.625V51.5z"/>
	<path fill="none" stroke="#0000FF" d="M259.945,42.139v3.168h2.616v2.688h-2.616v4.249c0,1.416,0.359,2.064,1.439,2.064
		c0.504,0,0.744-0.024,1.08-0.096l0.024,2.76c-0.456,0.168-1.345,0.313-2.353,0.313c-1.176,0-2.16-0.408-2.76-1.009
		c-0.673-0.696-1.009-1.824-1.009-3.48v-4.8h-1.56v-2.688h1.56v-2.185L259.945,42.139z"/>
	<path fill="none" stroke="#0000FF" d="M269.521,40.003h3.648v6.721h0.048c0.385-0.528,0.864-0.936,1.44-1.224
		c0.552-0.288,1.224-0.456,1.896-0.456c2.328,0,4.104,1.608,4.104,5.16v6.841h-3.648v-6.457c0-1.536-0.528-2.592-1.896-2.592
		c-0.96,0-1.561,0.624-1.824,1.296c-0.096,0.216-0.12,0.528-0.12,0.792v6.961h-3.648V40.003z"/>
	<path fill="none" stroke="#0000FF" d="M293.354,54.213c0,1.104,0.048,2.184,0.191,2.832h-3.288l-0.216-1.177h-0.072
		c-0.768,0.937-1.968,1.44-3.36,1.44c-2.376,0-3.792-1.729-3.792-3.601c0-3.048,2.736-4.488,6.889-4.488v-0.144
		c0-0.648-0.336-1.536-2.137-1.536c-1.2,0-2.472,0.408-3.24,0.888l-0.672-2.352c0.816-0.456,2.424-1.056,4.561-1.056
		c3.912,0,5.137,2.304,5.137,5.088V54.213z M289.825,51.5c-1.921,0-3.409,0.456-3.409,1.848c0,0.937,0.625,1.393,1.44,1.393
		c0.889,0,1.656-0.6,1.896-1.344c0.048-0.192,0.072-0.408,0.072-0.625V51.5z"/>
	<path fill="none" stroke="#0000FF" d="M296.232,53.876c0.672,0.408,2.063,0.864,3.144,0.864c1.104,0,1.561-0.359,1.561-0.96
		c0-0.624-0.36-0.912-1.704-1.368c-2.448-0.816-3.385-2.136-3.36-3.528c0-2.208,1.872-3.864,4.776-3.864
		c1.368,0,2.568,0.336,3.288,0.696l-0.624,2.521c-0.527-0.288-1.56-0.672-2.544-0.672c-0.888,0-1.393,0.36-1.393,0.936
		c0,0.576,0.456,0.864,1.896,1.368c2.232,0.768,3.145,1.92,3.168,3.625c0,2.208-1.704,3.816-5.064,3.816
		c-1.536,0-2.904-0.36-3.792-0.84L296.232,53.876z"/>
	<path fill="none" stroke="#0000FF" d="M311.52,40.003h3.648V46.7h0.048c0.696-1.008,1.921-1.656,3.553-1.656
		c2.809,0,4.849,2.328,4.824,5.928c0,4.225-2.664,6.337-5.353,6.337c-1.368,0-2.712-0.504-3.528-1.896h-0.048l-0.144,1.633h-3.097
		c0.048-0.769,0.096-2.185,0.096-3.505V40.003z M315.168,52.053c0,0.239,0.024,0.455,0.072,0.647c0.24,0.96,1.08,1.728,2.136,1.728
		c1.561,0,2.521-1.199,2.521-3.313c0-1.823-0.816-3.264-2.521-3.264c-0.983,0-1.896,0.744-2.136,1.8
		c-0.048,0.216-0.072,0.432-0.072,0.672V52.053z"/>
	<path fill="none" stroke="#0000FF" d="M328.752,52.34c0.096,1.512,1.608,2.232,3.313,2.232c1.248,0,2.256-0.168,3.24-0.504
		l0.479,2.473c-1.2,0.504-2.664,0.744-4.248,0.744c-3.984,0-6.265-2.305-6.265-5.977c0-2.977,1.849-6.265,5.929-6.265
		c3.792,0,5.232,2.952,5.232,5.856c0,0.624-0.072,1.176-0.12,1.44H328.752z M333.048,49.844c0-0.888-0.384-2.376-2.063-2.376
		c-1.536,0-2.16,1.416-2.257,2.376H333.048z"/>
	<path fill="none" stroke="#0000FF" d="M341.424,52.34c0.096,1.512,1.608,2.232,3.313,2.232c1.248,0,2.256-0.168,3.24-0.504
		l0.479,2.473c-1.2,0.504-2.664,0.744-4.248,0.744c-3.984,0-6.265-2.305-6.265-5.977c0-2.977,1.849-6.265,5.929-6.265
		c3.792,0,5.232,2.952,5.232,5.856c0,0.624-0.072,1.176-0.12,1.44H341.424z M345.72,49.844c0-0.888-0.384-2.376-2.063-2.376
		c-1.536,0-2.16,1.416-2.257,2.376H345.72z"/>
	<path fill="none" stroke="#0000FF" d="M351.287,49.052c0-1.464-0.048-2.688-0.096-3.744h3.168l0.168,1.632h0.072
		c0.48-0.768,1.656-1.896,3.624-1.896c2.4,0,4.201,1.608,4.201,5.064v6.937h-3.648V50.54c0-1.512-0.528-2.544-1.849-2.544
		c-1.008,0-1.608,0.696-1.872,1.368c-0.096,0.24-0.12,0.576-0.12,0.912v6.769h-3.648V49.052z"/>
	<path fill="none" stroke="#0000FF" d="M370.199,49.172c0-1.728-0.023-2.856-0.096-3.864h3.12l0.145,2.16h0.096
		c0.6-1.729,2.016-2.448,3.168-2.448c0.336,0,0.504,0.024,0.769,0.072v3.433c-0.288-0.048-0.576-0.096-0.984-0.096
		c-1.344,0-2.256,0.72-2.496,1.848c-0.048,0.24-0.072,0.528-0.072,0.816v5.953h-3.648V49.172z"/>
	<path fill="none" stroke="#0000FF" d="M381.936,52.34c0.096,1.512,1.608,2.232,3.313,2.232c1.248,0,2.256-0.168,3.24-0.504
		l0.479,2.473c-1.2,0.504-2.664,0.744-4.248,0.744c-3.984,0-6.265-2.305-6.265-5.977c0-2.977,1.849-6.265,5.929-6.265
		c3.792,0,5.232,2.952,5.232,5.856c0,0.624-0.072,1.176-0.12,1.44H381.936z M386.231,49.844c0-0.888-0.384-2.376-2.063-2.376
		c-1.536,0-2.16,1.416-2.257,2.376H386.231z"/>
	<path fill="none" stroke="#0000FF" d="M395.88,42.139v3.168h2.616v2.688h-2.616v4.249c0,1.416,0.359,2.064,1.439,2.064
		c0.504,0,0.744-0.024,1.08-0.096l0.024,2.76c-0.456,0.168-1.345,0.313-2.353,0.313c-1.176,0-2.16-0.408-2.76-1.009
		c-0.672-0.696-1.009-1.824-1.009-3.48v-4.8h-1.56v-2.688h1.56v-2.185L395.88,42.139z"/>
	<path fill="none" stroke="#0000FF" d="M400.606,49.172c0-1.728-0.023-2.856-0.096-3.864h3.12l0.145,2.16h0.096
		c0.6-1.729,2.016-2.448,3.168-2.448c0.336,0,0.504,0.024,0.769,0.072v3.433c-0.288-0.048-0.576-0.096-0.984-0.096
		c-1.344,0-2.256,0.72-2.496,1.848c-0.048,0.24-0.072,0.528-0.072,0.816v5.953h-3.648V49.172z"/>
	<path fill="none" stroke="#0000FF" d="M413.495,42.043c0,1.008-0.744,1.824-1.968,1.824c-1.152,0-1.896-0.816-1.896-1.824
		c0-1.032,0.768-1.824,1.944-1.824C412.751,40.219,413.471,41.011,413.495,42.043z M409.727,57.045V45.308h3.648v11.737H409.727z"/>
	<path fill="none" stroke="#0000FF" d="M419.111,52.34c0.096,1.512,1.608,2.232,3.313,2.232c1.248,0,2.256-0.168,3.24-0.504
		l0.479,2.473c-1.2,0.504-2.664,0.744-4.248,0.744c-3.984,0-6.265-2.305-6.265-5.977c0-2.977,1.849-6.265,5.929-6.265
		c3.792,0,5.232,2.952,5.232,5.856c0,0.624-0.072,1.176-0.12,1.44H419.111z M423.407,49.844c0-0.888-0.384-2.376-2.063-2.376
		c-1.536,0-2.16,1.416-2.257,2.376H423.407z"/>
	<path fill="none" stroke="#0000FF" d="M431.543,45.308l1.584,5.448c0.288,1.008,0.479,1.92,0.672,2.856h0.072
		c0.191-0.96,0.384-1.849,0.647-2.856l1.513-5.448h3.84l-4.368,11.737h-3.648l-4.272-11.737H431.543z"/>
	<path fill="none" stroke="#0000FF" d="M443.999,52.34c0.096,1.512,1.608,2.232,3.313,2.232c1.248,0,2.256-0.168,3.24-0.504
		l0.479,2.473c-1.2,0.504-2.664,0.744-4.248,0.744c-3.984,0-6.265-2.305-6.265-5.977c0-2.977,1.849-6.265,5.929-6.265
		c3.792,0,5.232,2.952,5.232,5.856c0,0.624-0.072,1.176-0.12,1.44H443.999z M448.295,49.844c0-0.888-0.384-2.376-2.063-2.376
		c-1.536,0-2.16,1.416-2.257,2.376H448.295z"/>
	<path fill="none" stroke="#0000FF" d="M465.239,40.003V53.54c0,1.32,0.048,2.712,0.097,3.505h-3.24l-0.145-1.705h-0.072
		c-0.72,1.297-2.16,1.969-3.672,1.969c-2.784,0-5.017-2.377-5.017-6.025c-0.023-3.959,2.448-6.264,5.257-6.264
		c1.464,0,2.568,0.528,3.096,1.32h0.048v-6.336H465.239z M461.591,50.276c0-0.192,0-0.456-0.048-0.672
		c-0.216-0.96-1.008-1.776-2.136-1.776c-1.681,0-2.521,1.488-2.521,3.336c0,1.992,0.984,3.24,2.496,3.24
		c1.057,0,1.92-0.721,2.137-1.752c0.048-0.264,0.071-0.553,0.071-0.84V50.276z"/>
	<path fill="#0000FF" stroke="#0000FF" d="M473.158,40.867h3.648v13.105h6.433v3.072h-10.081V40.867z"/>
	<path fill="#0000FF" stroke="#0000FF" d="M499.296,48.788c0,5.329-3.192,8.521-7.945,8.521c-4.776,0-7.608-3.625-7.608-8.257
		c0-4.849,3.12-8.473,7.873-8.473C496.584,40.579,499.296,44.299,499.296,48.788z M487.606,48.98c0,3.192,1.488,5.424,3.937,5.424
		c2.473,0,3.889-2.352,3.889-5.497c0-2.928-1.368-5.424-3.889-5.424C489.047,43.483,487.606,45.835,487.606,48.98z"/>
	<path fill="#0000FF" stroke="#0000FF" d="M513.552,56.612c-0.648,0.312-2.185,0.696-4.129,0.696c-5.592,0-8.473-3.504-8.473-8.113
		c0-5.521,3.937-8.569,8.833-8.569c1.896,0,3.336,0.36,3.984,0.72l-0.769,2.88c-0.72-0.312-1.752-0.6-3.072-0.6
		c-2.88,0-5.136,1.752-5.136,5.353c0,3.241,1.92,5.28,5.16,5.28c1.128,0,2.328-0.216,3.072-0.527L513.552,56.612z"/>
	<path fill="#0000FF" stroke="#0000FF" d="M519.982,52.893l-1.152,4.152h-3.769l4.921-16.178h4.801l5.04,16.178h-3.96l-1.249-4.152
		H519.982z M524.087,50.156l-1.008-3.432c-0.288-0.96-0.576-2.16-0.816-3.121h-0.048c-0.24,0.96-0.48,2.185-0.744,3.121l-0.96,3.432
		H524.087z"/>
	<path fill="#0000FF" stroke="#0000FF" d="M531.981,40.867h3.648v13.105h6.433v3.072h-10.081V40.867z"/>
	<path fill="#0000FF" stroke="#0000FF" d="M544.245,40.867h3.648v13.105h6.433v3.072h-10.081V40.867z"/>
	<path fill="#0000FF" stroke="#0000FF" d="M558.068,57.045V50.42l-5.112-9.553h4.2l1.633,3.888c0.504,1.176,0.864,2.04,1.248,3.096
		h0.048c0.36-1.008,0.744-1.944,1.224-3.096l1.633-3.888h4.104l-5.329,9.433v6.745H558.068z"/>
	<path fill="none" stroke="#0000FF" d="M565.581,55.1c0-1.319,0.888-2.231,2.16-2.231c1.248,0,2.112,0.888,2.136,2.231
		c0,1.273-0.863,2.209-2.184,2.209C566.469,57.309,565.581,56.373,565.581,55.1z"/>
</g>
</svg>
